<?xml version="1.0" standalone="no"?>
<!DOCTYPE svg PUBLIC "-//W3C//DTD SVG 20010904//EN"
 "http://www.w3.org/TR/2001/REC-SVG-20010904/DTD/svg10.dtd">
<svg version="1.0" xmlns="http://www.w3.org/2000/svg"
 width="512.000000pt" height="512.000000pt" viewBox="0 0 512.000000 512.000000"
 preserveAspectRatio="xMidYMid meet">
<metadata>
Created by potrace 1.11, written by Peter Selinger 2001-2013
</metadata>
<g transform="translate(0.000000,512.000000) scale(0.100000,-0.100000)"
fill="#000000" stroke="none">
<path d="M2770 2780 l0 -990 115 0 115 0 0 990 0 990 -115 0 -115 0 0 -990z"/>
<path d="M290 3214 c0 -6 86 -123 372 -507 126 -168 127 -171 110 -191 -10
-12 -113 -149 -228 -306 -115 -157 -212 -289 -216 -295 -107 -138 -112 -125
47 -125 l135 0 102 138 c56 75 142 193 192 261 50 68 98 132 106 142 14 18 23
9 140 -151 69 -94 132 -179 140 -189 8 -10 44 -59 80 -109 l65 -91 138 -1
c113 0 137 2 130 14 -4 7 -69 95 -143 195 -74 101 -192 260 -261 354 l-126
171 96 130 c108 148 103 141 134 181 58 75 277 376 277 380 0 3 -60 5 -134 5
l-134 0 -183 -247 c-100 -137 -185 -251 -188 -255 -6 -7 -20 11 -244 315
l-139 187 -134 0 c-74 0 -134 -3 -134 -6z"/>
<path d="M3397 3038 c41 -101 104 -255 140 -343 36 -88 74 -180 84 -205 10
-25 76 -187 147 -360 l129 -314 -45 -111 c-93 -224 -119 -248 -289 -254 l-113
-3 0 -99 0 -99 120 0 c243 0 332 47 427 226 23 43 161 378 308 744 146 366
270 674 275 685 14 30 106 266 115 293 l7 23 -123 -3 -122 -3 -73 -180 c-40
-99 -74 -182 -75 -185 -11 -32 -167 -425 -184 -465 -8 -16 -35 -84 -60 -150
-26 -66 -48 -121 -50 -123 -1 -2 -53 124 -115 280 -61 156 -116 292 -121 303
-5 11 -54 133 -108 270 l-99 250 -125 3 -125 3 75 -183z"/>
<path d="M1980 1950 l0 -160 135 0 135 0 0 160 0 160 -135 0 -135 0 0 -160z"/>
</g>
</svg>
